PathFileType	4	(X/Y/Z)	C:\Users\Basilio\Documents\Thesis Gigler\squatting_fais\c3dfiles\019\SLS_back_pre5\markers_experimental.trc
DataRate	CameraRate	NumFrames	NumMarkers	Units	OrigDataRate	OrigDataStartFrame	OrigNumFrames
200.000000	200.000000	4	59	mm	200.000000	1554	2073
Frame#	Time	FHD			LBHD			RBHD			C7			T10			CLAV			LSHO			LUUPA			LMUPA			LDUPA			LLEP			LMEP			LRAD			LUL			LRFIN			RSHO			RUPA1			RMUPA			RDUPA			RLEP			RMEP			RRAD			RUL			RUFIN			LASI			RASI			USACR			LSACR			RSACR			LTHI1			LTHI2			LTHI3			LTHI4			LLFC			LTIB1			LTIB2			LTIB3			LTIB4			LLMAL			LMMAL			LHEE			LMT1			LMT2			LMT5			RTHI			RTHI2			RTHI3			RTHI4			RLFC			RTIB1			RTIB2			RTIB3			RTIB4			RLMAL			RMMAL			RHEE			RMT1			RMT2			RMT5			
		X1	Y1	Z1	X2	Y2	Z2	X3	Y3	Z3	X4	Y4	Z4	X5	Y5	Z5	X6	Y6	Z6	X7	Y7	Z7	X8	Y8	Z8	X9	Y9	Z9	X10	Y10	Z10	X11	Y11	Z11	X12	Y12	Z12	X13	Y13	Z13	X14	Y14	Z14	X15	Y15	Z15	X16	Y16	Z16	X17	Y17	Z17	X18	Y18	Z18	X19	Y19	Z19	X20	Y20	Z20	X21	Y21	Z21	X22	Y22	Z22	X23	Y23	Z23	X24	Y24	Z24	X25	Y25	Z25	X26	Y26	Z26	X27	Y27	Z27	X28	Y28	Z28	X29	Y29	Z29	X30	Y30	Z30	X31	Y31	Z31	X32	Y32	Z32	X33	Y33	Z33	X34	Y34	Z34	X35	Y35	Z35	X36	Y36	Z36	X37	Y37	Z37	X38	Y38	Z38	X39	Y39	Z39	X40	Y40	Z40	X41	Y41	Z41	X42	Y42	Z42	X43	Y43	Z43	X44	Y44	Z44	X45	Y45	Z45	X46	Y46	Z46	X47	Y47	Z47	X48	Y48	Z48	X49	Y49	Z49	X50	Y50	Z50	X51	Y51	Z51	X52	Y52	Z52	X53	Y53	Z53	X54	Y54	Z54	X55	Y55	Z55	X56	Y56	Z56	X57	Y57	Z57	X58	Y58	Z58	X59	Y59	Z59	

1555	7.77	-54.48986816406251	1393.491577148438	-639.0387573242189	-180.7313690185547	1371.298461914063	-785.9083251953127	-188.3811340332032	1363.828979492188	-646.4768676757814	-247.1355285644532	1236.5107421875	-712.0868530273439	-415.2718200683595	1017.007934570313	-735.5493164062501	-136.0948638916016	1139.231201171875	-712.7611694335939	-165.4952239990235	1225.251708984375	-831.9769287109377	-51.72022628784181	1192.616455078125	-890.295104980469	-26.49717521667481	1179.151611328125	-850.808288574219	13.79652118682862	1184.442016601563	-895.5137939453127	81.80379486083986	1149.382080078125	-931.825622558594	74.86589813232423	1091.467041015625	-922.609802246094	321.9110107421876	1158.068481445313	-851.4354248046877	329.5473937988282	1117.849853515625	-902.844177246094	393.784881591797	1178.91259765625	-854.727233886719	-164.6803283691407	1220.710571289063	-606.0040283203126	-57.65227508544923	1170.550659179688	-490.4734497070314	-33.48360824584962	1193.237915039063	-526.6361694335939	10.83935260772705	1162.149536132813	-491.8554687500001	88.25466156005861	1159.0439453125	-504.6230773925782	79.42321777343751	1099.702514648438	-516.9572753906251	321.5556640625001	1212.30908203125	-584.7934570312501	341.1866149902344	1170.182373046875	-539.0349731445314	399.716522216797	1234.364868164063	-581.3894042968751	-405.9078063964845	771.2296142578127	-861.7419433593752	-384.988006591797	779.0256958007815	-663.6416015625001	-499.6702270507814	903.2258911132815	-753.7772827148439	-522.9205322265626	877.6206054687502	-779.5505371093752	-519.6416625976564	877.0744628906252	-722.2312622070314	-463.1235961914064	536.7230224609376	-947.5017089843752	-409.6609497070314	469.2669982910157	-952.1441650390627	-366.7976379394532	477.4863586425782	-934.4204711914065	-425.9464416503907	409.7248535156251	-947.0546875000002	-424.0401611328126	330.1840820312501	-933.0572509765627	-520.7090454101564	234.5491638183594	-893.9644165039065	-574.5698242187501	279.2186584472657	-956.6082763671877	-572.0276489257814	247.3305664062501	-928.1123657226565	-651.2557983398439	239.3558502197266	-891.9453125000002	-789.340759277344	291.0020446777344	-928.117614746094	-776.074157714844	286.8190917968751	-843.5371093750002	-829.9019165039065	356.3352661132813	-887.5720214843752	-845.0549316406252	151.7317352294922	-831.1207275390627	-853.2830810546877	139.2678375244141	-864.6627197265627	-879.576110839844	175.1191101074219	-923.825378417969	-386.3428955078126	643.6403808593751	-580.1779174804689	-322.3226013183594	637.5258789062501	-595.2647705078126	-308.7953796386719	664.7623901367189	-614.3453979492189	-279.4913024902344	566.3566894531251	-598.8921508789064	-200.2667999267579	444.8824768066407	-650.4664306640626	-218.3852844238282	281.6589050292969	-729.9857177734376	-294.9270935058594	223.7477111816407	-673.9786376953126	-268.6610717773438	212.5177612304688	-712.6824951171876	-300.8244018554688	187.2803497314453	-754.3755493164064	-387.0668029785157	126.8273696899414	-707.2408447265626	-374.7770996093751	137.8087768554688	-785.107604980469	-465.3743896484376	111.4023132324219	-761.7601928710939	-266.8884887695313	56.40011215209962	-791.325378417969	-261.5062255859376	60.68708801269533	-746.1251831054689	-301.2577514648438	49.30929946899415	-691.3357543945314	
1556	7.775	-55.2787437438965	1395.58154296875	-639.3989868164064	-181.2608184814453	1373.199462890625	-785.9777832031252	-189.2947692871094	1366.048583984375	-646.4216918945314	-248.0175476074219	1238.36181640625	-712.0772094726564	-415.4375915527345	1018.360107421875	-735.6237792968751	-136.7403259277344	1141.197265625	-712.3811035156251	-166.4987335205078	1227.297607421875	-832.1094360351565	-52.58668899536134	1194.657592773438	-890.3488769531252	-27.35159301757813	1181.322021484375	-850.838806152344	12.90401554107666	1186.527221679688	-895.5716552734377	81.00378417968751	1151.524658203125	-931.9851074218752	74.01040649414064	1093.532958984375	-922.7658691406252	321.0241088867188	1160.507202148438	-851.5166625976565	328.4551696777344	1120.28662109375	-902.8848876953127	393.227508544922	1181.2041015625	-854.7508544921877	-166.324935913086	1223.803955078125	-607.3034667968751	-58.44738388061525	1171.872314453125	-490.730194091797	-34.49987792968751	1195.2861328125	-526.8020629882814	10.43762016296387	1163.735961914063	-491.8223571777345	87.53482818603517	1160.976684570313	-504.8905334472657	78.81199645996095	1101.586791992188	-517.4025878906251	320.9772644042969	1214.433837890625	-584.6220092773439	340.6930236816407	1172.258056640625	-539.1427612304689	400.6131286621095	1236.212280273438	-581.4815673828126	-405.8039550781251	772.701843261719	-861.7955322265627	-384.7300415039064	780.3867797851565	-663.6532592773439	-499.6990966796876	904.5262451171877	-753.8021240234376	-523.2864990234376	879.2095336914065	-779.412780761719	-519.5050659179689	878.7312011718752	-722.3825683593751	-462.4176025390626	538.2774047851564	-947.4816894531252	-408.7848205566407	471.1416320800782	-952.077087402344	-365.8664855957032	479.451141357422	-934.4924926757815	-424.7312622070314	411.3421630859376	-947.0460205078127	-422.7561035156251	332.0116577148438	-932.9987792968752	-519.1593017578126	236.1184082031251	-893.6443481445315	-573.0446166992189	280.5032043457032	-956.181091308594	-570.2879028320314	248.7054443359376	-927.671325683594	-649.5941772460939	241.0081787109376	-891.4997558593752	-787.6141357421877	291.8284301757813	-927.3464965820315	-774.3251953125002	287.9507141113282	-842.8833618164065	-828.2737426757815	357.1914367675782	-886.921325683594	-842.9732666015627	152.8952331542969	-830.0623168945315	-848.4012451171877	142.6788177490235	-868.1059570312502	-877.6104125976565	175.769515991211	-922.7810668945315	-386.0614318847657	644.5620117187501	-580.3566894531251	-322.1885986328126	638.2798461914064	-595.4651489257814	-308.3603210449219	665.4586791992189	-614.5600585937501	-279.4466552734376	566.9802246093751	-599.0651855468751	-200.5893096923829	445.2767639160157	-650.5982055664064	-218.6737823486329	281.9183654785157	-729.9452514648439	-295.0474548339844	223.9200744628907	-674.0083618164064	-268.7646179199219	212.7267303466797	-712.6642456054689	-300.9049377441407	187.3853149414063	-754.3646850585939	-387.2962036132814	126.9683914184571	-707.1643066406251	-374.9808959960938	137.9061889648438	-785.0503540039065	-465.4678649902345	111.4336013793946	-761.7175292968751	-266.8063049316407	56.4977378845215	-791.336364746094	-261.4966735839844	60.70294189453126	-746.1182250976564	-301.3365173339844	49.38018035888673	-691.3793334960939	
1557	7.78	-56.19818115234376	1397.945678710938	-639.5603637695314	-182.5650939941407	1375.433715820313	-786.1467285156252	-190.0623168945313	1368.343872070313	-646.4741821289064	-248.8713073730469	1240.382934570313	-712.0845336914064	-415.8376464843751	1019.934265136719	-735.4855957031251	-137.2238922119141	1143.474365234375	-712.5349731445314	-167.5074005126953	1229.411865234375	-832.178405761719	-53.30331420898439	1196.792724609375	-890.5000610351565	-28.05073165893555	1183.495727539063	-851.0739746093752	12.19641304016114	1188.703002929688	-895.684265136719	80.22982025146486	1153.60791015625	-932.051208496094	73.1979217529297	1095.643310546875	-922.805847167969	320.1411437988282	1162.940551757813	-851.6616821289065	327.8057556152344	1122.451171875	-902.8957519531252	392.6445617675782	1183.717529296875	-854.6824951171877	-165.9255065917969	1225.0625	-606.5053710937501	-58.8405227661133	1173.930541992188	-490.5823974609376	-34.67585754394532	1196.963134765625	-526.6466674804689	9.634482383728029	1165.658813476563	-491.9779663085939	87.09221649169923	1162.82861328125	-504.959197998047	78.30152130126955	1103.415771484375	-517.4269409179689	320.3137817382813	1216.464721679688	-584.4880981445314	340.0695190429688	1174.158935546875	-539.1245727539064	398.9588623046876	1238.675170898438	-581.2561645507814	-405.5621643066407	774.3190917968752	-861.8096923828127	-384.513397216797	781.8083496093752	-663.7214965820314	-499.696258544922	905.9002075195315	-753.7441406250001	-522.9096679687501	880.2778930664065	-779.4544677734377	-519.4370727539064	879.735534667969	-722.3140258789064	-461.8316650390626	539.9412231445314	-947.5447998046877	-407.4679260253907	472.6127014160157	-952.1378173828127	-364.8599853515626	481.2088928222657	-934.6074829101565	-423.6291503906251	413.1316833496095	-947.0653076171877	-421.410125732422	333.7619934082032	-932.9759521484377	-517.3906250000001	236.6530456542969	-893.7026977539065	-571.5286254882814	282.1629333496094	-955.9309692382815	-568.6808471679689	250.1907348632813	-927.3038330078127	-647.8721923828126	242.2801208496094	-891.0941162109377	-786.3935546875002	293.0938415527344	-926.8125000000002	-772.6888427734377	289.1237792968751	-842.2017211914065	-826.514343261719	357.8818664550782	-886.0889282226565	-840.9843750000002	153.8626251220703	-829.129333496094	-849.095886230469	141.3985595703125	-862.432800292969	-875.7148437500002	176.5180969238282	-921.7456054687502	-385.8338317871095	645.4755249023439	-580.3991088867189	-321.9719238281251	638.9863281250001	-595.5615234375001	-308.2125549316407	666.0570678710939	-614.7137451171876	-279.4487915039063	567.6760864257814	-599.2579956054689	-200.9555206298829	445.7194213867189	-650.7574462890626	-218.7968902587891	282.0798034667969	-730.0370483398439	-295.1702880859376	224.0686645507813	-674.0003662109376	-268.9279174804688	212.8809204101563	-712.6493530273439	-300.9144592285157	187.186996459961	-754.4229736328126	-387.4105224609376	127.0639190673828	-707.1455688476564	-374.9264221191407	137.9280853271485	-785.042175292969	-465.7390441894532	111.5850906372071	-761.6766967773439	-266.8188171386719	56.45529556274415	-791.2896728515627	-261.5282897949219	60.68011474609376	-746.1334228515626	-301.3031005859376	49.38754272460939	-691.4171142578126	
1558	7.785	-56.89628219604494	1400.145874023438	-639.7725219726564	-183.5912170410157	1377.478515625	-786.345642089844	-190.9015808105469	1370.452026367188	-646.5316162109376	-249.7031402587891	1242.092895507813	-711.9906005859376	-416.0355529785157	1021.264282226563	-735.5017089843751	-137.6581573486328	1145.512817382813	-712.4824218750001	-168.184814453125	1231.413696289063	-832.2000732421877	-54.18821334838869	1198.8447265625	-890.6025390625002	-29.23851394653321	1185.696899414063	-851.2611083984377	11.34987354278565	1190.882690429688	-895.8233642578127	79.33725738525392	1155.729248046875	-932.156921386719	72.4675979614258	1097.677978515625	-922.8593750000002	319.1903686523438	1165.404174804688	-851.7969360351565	327.0744323730469	1124.807983398438	-902.9265747070315	391.7989196777345	1186.202514648438	-854.8345336914065	-166.5457458496094	1226.710693359375	-606.1228027343751	-61.95112228393556	1172.40380859375	-493.2684631347657	-35.56684875488282	1198.81884765625	-526.7013549804689	8.488016128540041	1167.898315429688	-493.1458129882814	86.41207885742189	1164.609130859375	-505.0931701660157	77.81786346435548	1104.966796875	-518.5657348632814	319.7724609375001	1218.797973632813	-584.2840576171876	339.3866271972657	1176.143920898438	-538.7557983398439	399.2919006347657	1240.749877929688	-581.1907348632814	-405.2325439453126	775.7744750976565	-862.0855712890627	-384.2959289550782	783.1701660156252	-663.7541503906251	-499.5823974609376	907.089782714844	-753.8047485351564	-523.0693359375001	881.6207275390627	-779.387634277344	-519.4624633789064	881.170104980469	-722.2875976562501	-461.081756591797	541.5297241210939	-947.5693969726565	-406.3839721679689	474.3185424804689	-952.1372070312502	-363.8292236328126	483.0245666503907	-934.6362915039065	-422.2499389648439	414.6957397460939	-947.0232543945315	-420.045623779297	335.4976196289063	-932.870544433594	-516.0475463867189	238.8479309082032	-894.022155761719	-569.8692626953126	283.4138793945313	-955.6345825195315	-566.8923339843751	251.4959869384766	-926.9940185546877	-645.9660034179689	243.4085388183594	-890.8770141601565	-784.752624511719	294.0826110839844	-926.1314697265627	-771.0184326171877	290.2828369140626	-841.535583496094	-824.8928222656252	359.1944885253907	-885.4320068359377	-839.1484375000002	154.7404937744141	-828.2851562500002	-844.4768066406252	144.5769195556641	-866.1973266601565	-873.857604980469	177.2756652832032	-920.716003417969	-385.5294189453126	646.5574340820314	-580.3397827148439	-321.6717529296876	639.6546020507814	-595.7514038085939	-307.8780517578126	666.6989746093751	-614.8809204101564	-279.4541625976563	568.1056518554689	-599.3593139648439	-201.3931121826172	446.1365966796876	-650.9315185546876	-219.0751495361329	282.4041137695313	-730.1082763671876	-295.3252563476563	224.2313842773438	-674.0160522460939	-269.0342102050782	213.0664215087891	-712.6987304687501	-301.1844787597657	187.5661926269532	-754.4253540039064	-387.3769531250001	127.0686645507813	-707.1103515625001	-374.9117126464844	137.9258880615235	-785.0360107421877	-465.4691162109376	111.4296569824219	-761.7152099609376	-266.8407592773438	56.40882873535158	-791.3458251953127	-261.5061950683594	60.72415161132814	-746.1793823242189	-301.3149414062501	49.36003875732423	-691.3678588867189	
